<svg xmlns="http://www.w3.org/2000/svg" version="1.1" xmlns:xlink="http://www.w3.org/1999/xlink" xmlns:svgjs="http://svgjs.dev/svgjs" width="1500" height="564" viewBox="0 0 1500 564"><g transform="matrix(1,0,0,1,-0.9090909090909918,-0.08094650218532706)"><svg viewBox="0 0 396 149" data-background-color="#ffffff" preserveAspectRatio="xMidYMid meet" height="564" width="1500" xmlns="http://www.w3.org/2000/svg" xmlns:xlink="http://www.w3.org/1999/xlink"><g id="tight-bounds" transform="matrix(1,0,0,1,0.2400000000000091,0.021384802882295162)"><svg viewBox="0 0 395.52 148.9572303942354" height="148.9572303942354" width="395.52"><g><svg viewBox="0 0 533.7070230803419 201" height="148.9572303942354" width="395.52"><g><rect width="8.440019661538463" height="201" x="205.84365128205127" y="0" fill="#8d021f" opacity="1" stroke-width="0" stroke="transparent" fill-opacity="1" class="rect-qz-0" data-fill-palette-color="primary" rx="1%" id="qz-0" data-palette-color="#8d021f"></rect></g><g transform="matrix(1,0,0,1,236.37796325128204,0.4999999999999858)"><svg viewBox="0 0 297.3290598290598 200.00000000000003" height="200.00000000000003" width="297.3290598290598"><g id="textblocktransform"><svg viewBox="0 0 297.3290598290598 200.00000000000003" height="200.00000000000003" width="297.3290598290598" id="textblock"><g><svg viewBox="0 0 297.3290598290598 200.00000000000003" height="200.00000000000003" width="297.3290598290598"><g transform="matrix(1,0,0,1,0,0)"><svg width="297.3290598290598" viewBox="2.0000000000000027 -33.300000000000004 139.15 80.45" height="200.00000000000003" data-palette-color="#8d021f"><svg></svg><svg></svg><g class="wordmark-text-0" data-fill-palette-color="primary" id="text-0"><path d="M16.6 10.5v-0.5c0.267 0 0.5-0.1 0.7-0.3 0.2-0.2 0.367-0.433 0.5-0.7 0.133-0.267 0.233-0.557 0.3-0.87 0.067-0.32 0.1-0.613 0.1-0.88v0-9.45c-0.6 0.767-1.333 1.383-2.2 1.85-0.867 0.467-2.05 0.7-3.55 0.7v0c-1.767 0-3.307-0.31-4.62-0.93-1.32-0.613-2.413-1.437-3.28-2.47-0.867-1.033-1.507-2.2-1.92-3.5-0.42-1.3-0.63-2.633-0.63-4v0c0-1.333 0.243-2.65 0.73-3.95 0.48-1.3 1.163-2.46 2.05-3.48 0.88-1.013 1.963-1.83 3.25-2.45 1.28-0.613 2.72-0.92 4.32-0.92v0c1.167 0 2.327 0.273 3.48 0.82 1.147 0.553 2.053 1.197 2.72 1.93v0l2.95-3.15v29c0 0.267 0.033 0.56 0.1 0.88 0.067 0.313 0.167 0.603 0.3 0.87 0.133 0.267 0.3 0.5 0.5 0.7 0.2 0.2 0.433 0.3 0.7 0.3v0 0.5zM12.75-1.35v0c0.7 0 1.377-0.143 2.03-0.43 0.647-0.28 1.23-0.663 1.75-1.15 0.513-0.48 0.92-1.047 1.22-1.7 0.3-0.647 0.45-1.353 0.45-2.12v0-6.8c0-0.967-0.183-1.827-0.55-2.58-0.367-0.747-0.833-1.38-1.4-1.9-0.567-0.513-1.217-0.903-1.95-1.17-0.733-0.267-1.467-0.4-2.2-0.4v0c-1.1 0-2.073 0.24-2.92 0.72-0.853 0.487-1.57 1.13-2.15 1.93-0.587 0.8-1.03 1.7-1.33 2.7-0.3 1-0.45 2.017-0.45 3.05v0c0 1.167 0.167 2.333 0.5 3.5 0.333 1.167 0.827 2.207 1.48 3.12 0.647 0.92 1.43 1.68 2.35 2.28 0.913 0.6 1.97 0.917 3.17 0.95zM46 0h-4.85v-2.55l-0.25 0.25c-0.833 0.833-1.79 1.483-2.87 1.95-1.087 0.467-2.397 0.7-3.93 0.7v0c-1.167 0-2.167-0.133-3-0.4-0.833-0.267-1.517-0.643-2.05-1.13-0.533-0.48-0.923-1.037-1.17-1.67-0.253-0.633-0.38-1.3-0.38-2v0c0-1.133 0.31-2.133 0.93-3 0.613-0.867 1.503-1.633 2.67-2.3 1.167-0.667 2.593-1.277 4.28-1.83 1.68-0.547 3.603-1.087 5.77-1.62v0c-0.067-1.3-0.333-2.35-0.8-3.15-0.467-0.8-1.017-1.427-1.65-1.88-0.633-0.447-1.3-0.747-2-0.9-0.7-0.147-1.3-0.22-1.8-0.22v0c-0.867 0-1.623 0.133-2.27 0.4-0.653 0.267-1.22 0.61-1.7 1.03-0.487 0.413-0.897 0.86-1.23 1.34-0.333 0.487-0.6 0.947-0.8 1.38v0h-0.45v-3.65c0.267-0.033 0.517-0.117 0.75-0.25 0.233-0.133 0.517-0.267 0.85-0.4v0c0.5-0.2 1.183-0.493 2.05-0.88 0.867-0.38 2.083-0.57 3.65-0.57v0c1.833 0 3.317 0.233 4.45 0.7 1.133 0.467 2.01 1.083 2.63 1.85 0.613 0.767 1.02 1.64 1.22 2.62 0.2 0.987 0.3 1.997 0.3 3.03v0 9.9c0 0.667 0.15 1.29 0.45 1.87 0.3 0.587 0.7 0.88 1.2 0.88v0zM40.6-4.15l0.55-0.6v-7.15l-0.5 0.1c-0.8 0.2-1.773 0.467-2.92 0.8-1.153 0.333-2.247 0.767-3.28 1.3-1.033 0.533-1.917 1.167-2.65 1.9-0.733 0.733-1.1 1.583-1.1 2.55v0c0 1.067 0.433 1.95 1.3 2.65 0.867 0.7 2 1.05 3.4 1.05v0c1.1 0 2.067-0.24 2.9-0.72 0.833-0.487 1.6-1.113 2.3-1.88zM71.6 0h-4.9v-2.2c-0.567 0.633-1.323 1.217-2.27 1.75-0.953 0.533-2.147 0.8-3.58 0.8v0c-1.767 0-3.307-0.31-4.62-0.93-1.32-0.613-2.413-1.42-3.28-2.42-0.867-1-1.507-2.143-1.92-3.43-0.42-1.28-0.63-2.603-0.63-3.97v0c0-1.333 0.217-2.66 0.65-3.98 0.433-1.313 1.083-2.487 1.95-3.52 0.867-1.033 1.95-1.867 3.25-2.5 1.3-0.633 2.8-0.95 4.5-0.95v0c1.133 0 2.25 0.207 3.35 0.62 1.1 0.42 1.967 0.963 2.6 1.63v0-9.75c0-0.567-0.083-1.1-0.25-1.6-0.167-0.5-0.65-0.767-1.45-0.8v0-0.5l5-1.55v30.05c0 0.267 0.033 0.557 0.1 0.87 0.067 0.32 0.167 0.613 0.3 0.88 0.133 0.267 0.3 0.5 0.5 0.7 0.2 0.2 0.433 0.3 0.7 0.3v0zM61.2-1.3v0c0.7 0 1.383-0.143 2.05-0.43 0.667-0.28 1.25-0.663 1.75-1.15 0.5-0.48 0.91-1.047 1.23-1.7 0.313-0.647 0.47-1.353 0.47-2.12v0-6.85c0-0.933-0.2-1.773-0.6-2.52-0.4-0.753-0.9-1.397-1.5-1.93-0.6-0.533-1.257-0.943-1.97-1.23-0.72-0.28-1.413-0.42-2.08-0.42v0c-1.1 0-2.083 0.257-2.95 0.77-0.867 0.52-1.6 1.187-2.2 2-0.6 0.82-1.05 1.737-1.35 2.75-0.3 1.02-0.45 2.03-0.45 3.03v0c0 1.167 0.167 2.323 0.5 3.47 0.333 1.153 0.827 2.187 1.48 3.1 0.647 0.92 1.437 1.68 2.37 2.28 0.933 0.6 2.017 0.917 3.25 0.95zM90.15-20.4l-1.5 3.05c-0.4-0.667-0.817-1.083-1.25-1.25-0.433-0.167-0.933-0.25-1.5-0.25v0c-0.367 0-0.757 0.083-1.17 0.25-0.42 0.167-0.83 0.383-1.23 0.65-0.4 0.267-0.79 0.56-1.17 0.88-0.387 0.313-0.713 0.603-0.98 0.87v0 13c0 0.267 0.033 0.55 0.1 0.85 0.067 0.3 0.177 0.59 0.33 0.87 0.147 0.287 0.313 0.52 0.5 0.7 0.18 0.187 0.403 0.28 0.67 0.28v0 0.5h-6.5v-0.5c0.233 0 0.45-0.093 0.65-0.28 0.2-0.18 0.377-0.413 0.53-0.7 0.147-0.28 0.253-0.57 0.32-0.87 0.067-0.3 0.1-0.583 0.1-0.85v0-13.95c0-0.467-0.15-0.933-0.45-1.4-0.3-0.467-0.733-0.767-1.3-0.9v0-0.4l5.05-1.5v3c0.3-0.367 0.617-0.727 0.95-1.08 0.333-0.347 0.707-0.663 1.12-0.95 0.42-0.28 0.88-0.513 1.38-0.7 0.5-0.18 1.083-0.27 1.75-0.27v0c0.467 0 1.067 0.1 1.8 0.3 0.733 0.2 1.333 0.417 1.8 0.65zM103.8 0.35v0c-1.667 0-3.167-0.277-4.5-0.83-1.333-0.547-2.473-1.297-3.42-2.25-0.953-0.947-1.687-2.07-2.2-3.37-0.52-1.3-0.78-2.717-0.78-4.25v0c0-1.633 0.283-3.127 0.85-4.48 0.567-1.347 1.35-2.503 2.35-3.47 1-0.967 2.183-1.717 3.55-2.25 1.367-0.533 2.85-0.8 4.45-0.8v0c1.6 0 3.067 0.257 4.4 0.77 1.333 0.52 2.483 1.247 3.45 2.18 0.967 0.933 1.717 2.04 2.25 3.32 0.533 1.287 0.8 2.697 0.8 4.23v0c0 1.433-0.24 2.823-0.72 4.17-0.487 1.353-1.203 2.547-2.15 3.58-0.953 1.033-2.12 1.867-3.5 2.5-1.387 0.633-2.997 0.95-4.83 0.95zM103.5-19.7v0c-1.2 0.067-2.257 0.36-3.17 0.88-0.92 0.513-1.687 1.18-2.3 2-0.62 0.813-1.087 1.737-1.4 2.77-0.32 1.033-0.48 2.083-0.48 3.15v0c0 1.233 0.193 2.423 0.58 3.57 0.38 1.153 0.93 2.18 1.65 3.08 0.713 0.9 1.57 1.617 2.57 2.15 1 0.533 2.117 0.8 3.35 0.8v0c1.233 0 2.327-0.267 3.28-0.8 0.947-0.533 1.737-1.223 2.37-2.07 0.633-0.853 1.11-1.813 1.43-2.88 0.313-1.067 0.47-2.133 0.47-3.2v0c0-1.1-0.167-2.21-0.5-3.33-0.333-1.113-0.85-2.13-1.55-3.05-0.7-0.913-1.573-1.653-2.62-2.22-1.053-0.567-2.28-0.85-3.68-0.85zM139.55-12.9v9.65c0 0.267 0.033 0.557 0.1 0.87 0.067 0.32 0.177 0.613 0.33 0.88 0.147 0.267 0.313 0.5 0.5 0.7 0.18 0.2 0.403 0.3 0.67 0.3v0 0.5h-6.45v-0.5c0.233 0 0.45-0.1 0.65-0.3 0.2-0.2 0.377-0.433 0.53-0.7 0.147-0.267 0.253-0.56 0.32-0.88 0.067-0.313 0.1-0.603 0.1-0.87v0-9.3c0-1.2-0.167-2.25-0.5-3.15-0.333-0.9-0.783-1.65-1.35-2.25-0.567-0.6-1.207-1.043-1.92-1.33-0.72-0.28-1.447-0.42-2.18-0.42v0c-0.733 0-1.457 0.15-2.17 0.45-0.72 0.3-1.353 0.693-1.9 1.18-0.553 0.48-1.003 1.043-1.35 1.69-0.353 0.653-0.53 1.33-0.53 2.03v0 11.1c0 0.267 0.033 0.557 0.1 0.87 0.067 0.32 0.177 0.613 0.33 0.88 0.147 0.267 0.313 0.5 0.5 0.7 0.18 0.2 0.403 0.3 0.67 0.3v0 0.5h-6.5v-0.5c0.233 0 0.45-0.1 0.65-0.3 0.2-0.2 0.377-0.433 0.53-0.7 0.147-0.267 0.253-0.56 0.32-0.88 0.067-0.313 0.1-0.603 0.1-0.87v0-13.8c0-0.567-0.083-1.11-0.25-1.63-0.167-0.513-0.65-0.787-1.45-0.82v0-0.45l5-1.6v2.75c0.233-0.267 0.533-0.56 0.9-0.88 0.367-0.313 0.81-0.613 1.33-0.9 0.513-0.28 1.113-0.513 1.8-0.7 0.68-0.18 1.487-0.27 2.42-0.27v0c1.567 0 2.9 0.267 4 0.8 1.1 0.533 2 1.223 2.7 2.07 0.7 0.853 1.21 1.787 1.53 2.8 0.313 1.02 0.47 2.013 0.47 2.98z" fill="#8d021f" fill-rule="nonzero" stroke="none" stroke-width="1" stroke-linecap="butt" stroke-linejoin="miter" stroke-miterlimit="10" stroke-dasharray="" stroke-dashoffset="0" font-family="none" font-weight="none" font-size="none" text-anchor="none" style="mix-blend-mode: normal" data-fill-palette-color="primary" opacity="1"></path><path transform="translate(0,46.8)" d="M34.25-12.6v9.35c0 0.267 0.033 0.557 0.1 0.87 0.067 0.32 0.167 0.613 0.3 0.88 0.133 0.267 0.293 0.5 0.48 0.7 0.18 0.2 0.403 0.3 0.67 0.3v0 0.5h-6.5v-0.5c0.267 0 0.5-0.1 0.7-0.3 0.2-0.2 0.377-0.433 0.53-0.7 0.147-0.267 0.253-0.56 0.32-0.88 0.067-0.313 0.1-0.603 0.1-0.87v0-10.8c0-0.767-0.107-1.5-0.32-2.2-0.22-0.7-0.547-1.307-0.98-1.82-0.433-0.52-0.967-0.94-1.6-1.26-0.633-0.313-1.35-0.47-2.15-0.47v0c-0.9 0-1.673 0.207-2.32 0.62-0.653 0.42-1.187 0.93-1.6 1.53-0.42 0.6-0.73 1.207-0.93 1.82-0.2 0.62-0.3 1.13-0.3 1.53v0 11.05c0 0.267 0.033 0.557 0.1 0.87 0.067 0.32 0.177 0.613 0.33 0.88 0.147 0.267 0.313 0.5 0.5 0.7 0.18 0.2 0.403 0.3 0.67 0.3v0 0.5h-6.45v-0.5c0.233 0 0.45-0.1 0.65-0.3 0.2-0.2 0.373-0.433 0.52-0.7 0.153-0.267 0.263-0.56 0.33-0.88 0.067-0.313 0.1-0.603 0.1-0.87v0-11.1c0-0.8-0.143-1.54-0.43-2.22-0.28-0.687-0.66-1.263-1.14-1.73-0.487-0.467-1.037-0.833-1.65-1.1-0.62-0.267-1.247-0.4-1.88-0.4v0c-0.867 0-1.623 0.167-2.27 0.5-0.653 0.333-1.187 0.75-1.6 1.25-0.42 0.5-0.737 1.04-0.95 1.62-0.22 0.587-0.33 1.147-0.33 1.68v0 11.5c0 0.267 0.033 0.557 0.1 0.87 0.067 0.32 0.177 0.613 0.33 0.88 0.147 0.267 0.313 0.5 0.5 0.7 0.18 0.2 0.403 0.3 0.67 0.3v0 0.5h-6.45v-0.5c0.233 0 0.45-0.1 0.65-0.3 0.2-0.2 0.377-0.433 0.53-0.7 0.147-0.267 0.253-0.56 0.32-0.88 0.067-0.313 0.1-0.603 0.1-0.87v0-13.35c0-0.267-0.017-0.567-0.05-0.9-0.033-0.333-0.1-0.65-0.2-0.95-0.1-0.3-0.267-0.55-0.5-0.75-0.233-0.2-0.55-0.3-0.95-0.3v0-0.45l4.95-1.65v2.55c0.5-0.567 1.193-1.117 2.08-1.65 0.88-0.533 2.037-0.8 3.47-0.8v0c0.933 0 1.767 0.133 2.5 0.4 0.733 0.267 1.377 0.607 1.93 1.02 0.547 0.42 1.02 0.897 1.42 1.43 0.4 0.533 0.733 1.05 1 1.55v0c0.267-0.5 0.583-1.01 0.95-1.53 0.367-0.513 0.81-0.987 1.33-1.42 0.513-0.433 1.13-0.783 1.85-1.05 0.713-0.267 1.553-0.4 2.52-0.4v0c1.867 0 3.333 0.333 4.4 1 1.067 0.667 1.86 1.467 2.38 2.4 0.513 0.933 0.837 1.907 0.97 2.92 0.133 1.02 0.2 1.88 0.2 2.58zM61-10.1h-17.35c0.133 1.167 0.417 2.273 0.85 3.32 0.433 1.053 1.01 1.98 1.73 2.78 0.713 0.8 1.587 1.44 2.62 1.92 1.033 0.487 2.233 0.73 3.6 0.73v0c0.733 0 1.51-0.11 2.33-0.33 0.813-0.213 1.57-0.52 2.27-0.92 0.7-0.4 1.327-0.893 1.88-1.48 0.547-0.58 0.92-1.237 1.12-1.97v0h0.45v3.75c-0.2 0-0.423 0.067-0.67 0.2-0.253 0.133-0.547 0.3-0.88 0.5v0c-0.667 0.4-1.567 0.823-2.7 1.27-1.133 0.453-2.633 0.68-4.5 0.68v0c-1.5 0-2.923-0.217-4.27-0.65-1.353-0.433-2.547-1.1-3.58-2-1.033-0.9-1.857-2.05-2.47-3.45-0.62-1.4-0.93-3.067-0.93-5v0c0-1.233 0.21-2.483 0.63-3.75 0.413-1.267 1.047-2.41 1.9-3.43 0.847-1.013 1.937-1.837 3.27-2.47 1.333-0.633 2.933-0.95 4.8-0.95v0c1.667 0 3.127 0.283 4.38 0.85 1.247 0.567 2.28 1.35 3.1 2.35 0.813 1 1.42 2.183 1.82 3.55 0.4 1.367 0.6 2.867 0.6 4.5zM50.9-19.7v0c-1.167 0-2.173 0.233-3.02 0.7-0.853 0.467-1.58 1.067-2.18 1.8-0.6 0.733-1.067 1.567-1.4 2.5-0.333 0.933-0.55 1.867-0.65 2.8v0h14.25c-0.033-0.967-0.207-1.917-0.52-2.85-0.32-0.933-0.763-1.767-1.33-2.5-0.567-0.733-1.283-1.327-2.15-1.78-0.867-0.447-1.867-0.67-3-0.67zM78.85-20.4l-1.5 3.05c-0.4-0.667-0.817-1.083-1.25-1.25-0.433-0.167-0.933-0.25-1.5-0.25v0c-0.367 0-0.757 0.083-1.17 0.25-0.42 0.167-0.83 0.383-1.23 0.65-0.4 0.267-0.79 0.56-1.17 0.88-0.387 0.313-0.713 0.603-0.98 0.87v0 13c0 0.267 0.033 0.55 0.1 0.85 0.067 0.3 0.177 0.59 0.33 0.87 0.147 0.287 0.313 0.52 0.5 0.7 0.18 0.187 0.403 0.28 0.67 0.28v0 0.5h-6.5v-0.5c0.233 0 0.45-0.093 0.65-0.28 0.2-0.18 0.377-0.413 0.53-0.7 0.147-0.28 0.253-0.57 0.32-0.87 0.067-0.3 0.1-0.583 0.1-0.85v0-13.95c0-0.467-0.15-0.933-0.45-1.4-0.3-0.467-0.733-0.767-1.3-0.9v0-0.4l5.05-1.5v3c0.3-0.367 0.617-0.727 0.95-1.08 0.333-0.347 0.71-0.663 1.13-0.95 0.413-0.28 0.87-0.513 1.37-0.7 0.5-0.18 1.083-0.27 1.75-0.27v0c0.467 0 1.067 0.1 1.8 0.3 0.733 0.2 1.333 0.417 1.8 0.65zM100.45-5.7v3.9c-0.267 0-0.517 0.057-0.75 0.17-0.233 0.12-0.5 0.263-0.8 0.43v0c-0.567 0.333-1.283 0.673-2.15 1.02-0.867 0.353-2 0.53-3.4 0.53v0c-1.7 0-3.273-0.277-4.72-0.83-1.453-0.547-2.703-1.313-3.75-2.3-1.053-0.98-1.873-2.13-2.46-3.45-0.58-1.313-0.87-2.737-0.87-4.27v0c0-1.433 0.26-2.8 0.78-4.1 0.513-1.3 1.253-2.45 2.22-3.45 0.967-1 2.16-1.8 3.58-2.4 1.413-0.6 3.02-0.9 4.82-0.9v0c1.233 0 2.233 0.14 3 0.42 0.767 0.287 1.417 0.563 1.95 0.83v0c0.3 0.167 0.593 0.3 0.88 0.4 0.28 0.1 0.57 0.15 0.87 0.15v0 3.8h-0.5c-0.167-0.633-0.467-1.193-0.9-1.68-0.433-0.48-0.933-0.887-1.5-1.22-0.567-0.333-1.183-0.583-1.85-0.75-0.667-0.167-1.317-0.25-1.95-0.25v0c-1.367 0-2.567 0.24-3.6 0.72-1.033 0.487-1.883 1.12-2.55 1.9-0.667 0.787-1.167 1.68-1.5 2.68-0.333 1-0.5 2.033-0.5 3.1v0c0 1.233 0.2 2.44 0.6 3.62 0.4 1.187 0.977 2.247 1.73 3.18 0.747 0.933 1.653 1.683 2.72 2.25 1.067 0.567 2.267 0.85 3.6 0.85v0c0.933 0 1.793-0.133 2.58-0.4 0.78-0.267 1.447-0.617 2-1.05 0.547-0.433 0.987-0.91 1.32-1.43 0.333-0.513 0.533-1.003 0.6-1.47v0zM123.9-12.9v9.65c0 0.267 0.033 0.557 0.1 0.87 0.067 0.32 0.177 0.613 0.33 0.88 0.147 0.267 0.313 0.5 0.5 0.7 0.18 0.2 0.403 0.3 0.67 0.3v0 0.5h-6.45v-0.5c0.233 0 0.45-0.1 0.65-0.3 0.2-0.2 0.373-0.433 0.52-0.7 0.153-0.267 0.263-0.56 0.33-0.88 0.067-0.313 0.1-0.603 0.1-0.87v0-9.3c0-1.2-0.167-2.25-0.5-3.15-0.333-0.9-0.783-1.65-1.35-2.25-0.567-0.6-1.207-1.043-1.92-1.33-0.72-0.28-1.447-0.42-2.18-0.42v0c-0.733 0-1.457 0.14-2.17 0.42-0.72 0.287-1.353 0.68-1.9 1.18-0.553 0.5-1.007 1.107-1.36 1.82-0.347 0.72-0.52 1.513-0.52 2.38v0 10.65c0 0.267 0.033 0.557 0.1 0.87 0.067 0.32 0.173 0.613 0.32 0.88 0.153 0.267 0.32 0.5 0.5 0.7 0.187 0.2 0.413 0.3 0.68 0.3v0 0.5h-6.5v-0.5c0.233 0 0.45-0.1 0.65-0.3 0.2-0.2 0.373-0.433 0.52-0.7 0.153-0.267 0.263-0.56 0.33-0.88 0.067-0.313 0.1-0.603 0.1-0.87v0-25.55c0-0.567-0.083-1.1-0.25-1.6-0.167-0.5-0.65-0.767-1.45-0.8v0-0.5l5-1.55v14.45c0.233-0.267 0.533-0.56 0.9-0.88 0.367-0.313 0.807-0.613 1.32-0.9 0.52-0.28 1.123-0.513 1.81-0.7 0.68-0.18 1.487-0.27 2.42-0.27v0c1.567 0 2.9 0.267 4 0.8 1.1 0.533 2 1.223 2.7 2.07 0.7 0.853 1.207 1.787 1.52 2.8 0.32 1.02 0.48 2.013 0.48 2.98z" fill="#8d021f" fill-rule="nonzero" stroke="none" stroke-width="1" stroke-linecap="butt" stroke-linejoin="miter" stroke-miterlimit="10" stroke-dasharray="" stroke-dashoffset="0" font-family="none" font-weight="none" font-size="none" text-anchor="none" style="mix-blend-mode: normal" data-fill-palette-color="primary" opacity="1"></path></g></svg></g></svg></g></svg></g></svg></g><g transform="matrix(1,0,0,1,0,27.799172413767664)"><svg viewBox="0 0 183.74935897435896 145.40165517246467" height="145.40165517246467" width="183.74935897435896"><g><svg xmlns="http://www.w3.org/2000/svg" xmlns:xlink="http://www.w3.org/1999/xlink" version="1.1" x="0" y="0" viewBox="7.33333 17.33331 83.4066 66" style="enable-background:new 0 0 100 100;" xml:space="preserve" height="145.40165517246467" width="183.74935897435896" class="icon-icon-0" data-fill-palette-color="accent" id="icon-0"><polygon points="57.73993,17.33331 57.73993,27.18756 68.24902,37.70117 57.73993,48.21027 57.73993,83.33331   70.6178,83.33331 74.23993,38.26013 77.86206,83.33331 90.73993,83.33331 90.73993,17.33331 " fill="#ff5858" data-fill-palette-color="accent"></polygon><polygon points="66.83469,37.70113 57.24829,47.28754 53.38964,43.43556 53.38964,74.58637 20.77839,74.58637   20.77839,43.43556 16.91974,47.28754 7.33333,37.70113 21.16695,23.86081 53.00108,23.86081 " fill="#ff5858" data-fill-palette-color="accent"></polygon></svg></g></svg></g></svg></g><defs></defs></svg><rect width="395.52" height="148.9572303942354" fill="none" stroke="none" visibility="hidden"></rect></g></svg></g></svg>